<?xml version="1.0" encoding="UTF-8" standalone="no"?>
<!-- Created with Inkscape (http://www.inkscape.org/) -->
<svg
   xmlns:dc="http://purl.org/dc/elements/1.1/"
   xmlns:cc="http://web.resource.org/cc/"
   xmlns:rdf="http://www.w3.org/1999/02/22-rdf-syntax-ns#"
   xmlns:svg="http://www.w3.org/2000/svg"
   xmlns="http://www.w3.org/2000/svg"
   xmlns:sodipodi="http://sodipodi.sourceforge.net/DTD/sodipodi-0.dtd"
   xmlns:inkscape="http://www.inkscape.org/namespaces/inkscape"
   width="120"
   height="120"
   id="svg2"
   sodipodi:version="0.32"
   inkscape:version="0.45.1"
   sodipodi:docbase="C:\Documents and Settings\Jim\Desktop\Wikipedia\Multiplication"
   sodipodi:docname="Multiplication Sign.svg"
   version="1.0"
   inkscape:output_extension="org.inkscape.output.svg.inkscape">
  <sodipodi:namedview
     id="base"
     pagecolor="#ffffff"
     bordercolor="#666666"
     borderopacity="1.0"
     gridtolerance="10000"
     guidetolerance="10"
     objecttolerance="10"
     inkscape:pageopacity="0.0"
     inkscape:pageshadow="2"
     inkscape:zoom="0.98994949"
     inkscape:cx="375"
     inkscape:cy="168.57143"
     inkscape:document-units="px"
     inkscape:current-layer="layer1"
     inkscape:window-width="1024"
     inkscape:window-height="708"
     inkscape:window-x="-4"
     inkscape:window-y="30" />
  <defs
     id="defs4" />
  <metadata
     id="metadata7">
    <rdf:RDF>
      <cc:Work
         rdf:about="">
        <dc:format>image/svg+xml</dc:format>
        <dc:type
           rdf:resource="http://purl.org/dc/dcmitype/StillImage" />
      </cc:Work>
    </rdf:RDF>
  </metadata>
  <g
     inkscape:label="Layer 1"
     id="layer1"
     inkscape:groupmode="layer"
     transform="translate(-306.48185,-237.21858)">
    <g
       id="g2165"
       transform="matrix(3.9099782,0,0,3.9181206,-881.85562,-1052.4066)">
      <g
         id="g2167"
         transform="matrix(1.0629921,0,0,-1.0629921,-186.02362,789.27165)"
         style="font-style:normal;font-variant:normal;font-weight:normal;font-stretch:normal;letter-spacing:normal;word-spacing:normal;text-anchor:start;fill:none;fill-opacity:1;fill-rule:evenodd;stroke:#000000;stroke-linecap:butt;stroke-linejoin:miter;stroke-miterlimit:10.43299961;stroke-dasharray:none;stroke-dashoffset:0;stroke-opacity:1"
         xml:space="preserve"><path
           id="path2169"
           d="M 476.82,418.45 L 486.73,428.41 C 487.28,428.96 487.38,429.06 487.38,429.46 C 487.38,430.01 486.93,430.46 486.39,430.46 C 485.99,430.46 485.79,430.26 485.34,429.81 L 475.38,419.85 L 465.36,429.81 C 464.82,430.36 464.72,430.46 464.32,430.46 C 463.82,430.46 463.32,430.01 463.32,429.46 C 463.32,429.06 463.52,428.86 463.97,428.41 L 473.88,418.45 L 463.97,408.54 C 463.47,408.04 463.32,407.74 463.32,407.45 C 463.32,406.9 463.82,406.45 464.32,406.45 C 464.72,406.45 464.82,406.55 465.36,407.1 L 475.33,417.06 L 485.29,407.1 C 485.79,406.6 486.09,406.45 486.39,406.45 C 486.98,406.45 487.38,406.9 487.38,407.45 C 487.38,407.84 487.28,407.94 486.73,408.49 L 476.82,418.45 z "
           style="fill:#000000;stroke-width:0" /></g>    </g>
  </g>
</svg>
