<?xml version="1.0" encoding="UTF-8" standalone="no"?>
<svg xmlns:dc="http://purl.org/dc/elements/1.1/" xmlns:cc="http://creativecommons.org/ns#" xmlns:rdf="http://www.w3.org/1999/02/22-rdf-syntax-ns#" xmlns:svg="http://www.w3.org/2000/svg" xmlns="http://www.w3.org/2000/svg" xmlns:xlink="http://www.w3.org/1999/xlink" xmlns:sodipodi="http://sodipodi.sourceforge.net/DTD/sodipodi-0.dtd" xmlns:inkscape="http://www.inkscape.org/namespaces/inkscape" width="128" height="128" id="svg2" sodipodi:version="0.32" inkscape:version="0.47 r22583" sodipodi:docname="Crystal_Clear_action_run.svg" inkscape:output_extension="org.inkscape.output.svg.inkscape" version="1.0">
<sodipodi:namedview id="base" pagecolor="#ffffff" bordercolor="#666666" borderopacity="1.0" gridtolerance="10000" guidetolerance="10" objecttolerance="10" inkscape:pageopacity="0.0" inkscape:pageshadow="2" inkscape:zoom="2" inkscape:cx="142.68419" inkscape:cy="57.905" inkscape:document-units="px" inkscape:current-layer="layer1" showgrid="false" inkscape:window-width="1024" inkscape:window-height="712" inkscape:window-x="-4" inkscape:window-y="-4" showguides="true" inkscape:guide-bbox="true" inkscape:window-maximized="1" />
<defs id="defs4">
<linearGradient inkscape:collect="always" id="linearGradient3290">
<stop style="stop-color:#ffffff;stop-opacity:1" offset="0" id="stop3292" />
<stop style="stop-color:#ffffff;stop-opacity:0" offset="1" id="stop3294" />
</linearGradient>
<linearGradient id="linearGradient3812">
<stop style="stop-color:#2e2e2e;stop-opacity:1" offset="0" id="stop3814" />
<stop style="stop-color:#000000;stop-opacity:0" offset="1" id="stop3816" />
</linearGradient>
<linearGradient inkscape:collect="always" id="linearGradient3644">
<stop style="stop-color:#000000;stop-opacity:1" offset="0" id="stop3646" />
<stop style="stop-color:#000000;stop-opacity:0" offset="1" id="stop3648" />
</linearGradient>
<linearGradient id="linearGradient3299">
<stop style="stop-color:#6a7390;stop-opacity:1" offset="0" id="stop3301" />
<stop style="stop-color:#eaebef;stop-opacity:1" offset="1" id="stop3303" />
</linearGradient>
<linearGradient id="linearGradient3283">
<stop style="stop-color:#ffffff;stop-opacity:0.78688526" offset="0" id="stop3285" />
<stop style="stop-color:#ffffff;stop-opacity:0" offset="1" id="stop3287" />
</linearGradient>
<linearGradient inkscape:collect="always" xlink:href="#linearGradient3299" id="linearGradient3339" x1="236.14679" y1="509.08899" x2="256.25" y2="553.19183" gradientUnits="userSpaceOnUse" />
<linearGradient inkscape:collect="always" xlink:href="#linearGradient3299" id="linearGradient3347" x1="251.46344" y1="510.37042" x2="261.67477" y2="558.29987" gradientUnits="userSpaceOnUse" />
<filter inkscape:collect="always" id="filter3525">
<feGaussianBlur inkscape:collect="always" stdDeviation="3.1093332" id="feGaussianBlur3527" />
</filter>
<linearGradient inkscape:collect="always" xlink:href="#linearGradient3299" id="linearGradient3547" gradientUnits="userSpaceOnUse" x1="170.4201" y1="513.32434" x2="170.4201" y2="577.06873" />
<linearGradient inkscape:collect="always" xlink:href="#linearGradient3283" id="linearGradient3555" gradientUnits="userSpaceOnUse" x1="263.30957" y1="517.92938" x2="254.34146" y2="540.2486" />
<linearGradient inkscape:collect="always" xlink:href="#linearGradient3283" id="linearGradient3559" gradientUnits="userSpaceOnUse" x1="170.4201" y1="501.71945" x2="170.4201" y2="518.36169" />
<linearGradient
 inkscape:collect="always" xlink:href="#linearGradient3644" id="linearGradient3650" x1="128.4258" y1="498.07144" x2="128.4258" y2="527.55396" gradientUnits="userSpaceOnUse" />
<filter inkscape:collect="always" id="filter3808">
<feGaussianBlur inkscape:collect="always" stdDeviation="1.8874999" id="feGaussianBlur3810" />
</filter>
<linearGradient inkscape:collect="always" xlink:href="#linearGradient3812" id="linearGradient3818" x1="377.50214" y1="507.22119" x2="377.50214" y2="534.16211" gradientUnits="userSpaceOnUse" />
<linearGradient inkscape:collect="always" xlink:href="#linearGradient3812" id="linearGradient3833" gradientUnits="userSpaceOnUse" x1="377.50214" y1="507.22119" x2="377.50214" y2="534.16211" />
<linearGradient inkscape:collect="always" xlink:href="#linearGradient3290" id="linearGradient3296" x1="454.52679" y1="481.29074" x2="330.00446" y2="481.29074" gradientUnits="userSpaceOnUse" />
<linearGradient inkscape:collect="always" xlink:href="#linearGradient3299" id="linearGradient3310" gradientUnits="userSpaceOnUse" gradientTransform="translate(3.6221094e-4,0)" x1="327.14285" y1="571.29077" x2="327.14285" y2="481.29074" />
<linearGradient inkscape:collect="always" xlink:href="#linearGradient3299" id="linearGradient3374" gradientUnits="userSpaceOnUse" gradientTransform="translate(3.6221094e-4,0)" x1="327.14285" y1="571.29077" x2="327.14285" y2="481.29074" />
<linearGradient inkscape:collect="always" xlink:href="#linearGradient3299" id="linearGradient3376" gradientUnits="userSpaceOnUse" x1="236.14679" y1="509.08899" x2="256.25" y2="553.19183" />
<linearGradient inkscape:collect="always" xlink:href="#linearGradient3299" id="linearGradient3378" gradientUnits="userSpaceOnUse" x1="251.46344" y1="510.37042" x2="261.67477" y2="558.29987" />
<linearGradient inkscape:collect="always" xlink:href="#linearGradient3299" id="linearGradient3380" gradientUnits="userSpaceOnUse" x1="170.4201" y1="513.32434" x2="170.4201" y2="577.06873" />
<linearGradient inkscape:collect="always" xlink:href="#linearGradient3283" id="linearGradient3382" gradientUnits="userSpaceOnUse" x1="170.4201" y1="501.71945" x2="170.4201" y2="518.36169" />
<linearGradient inkscape:collect="always" xlink:href="#linearGradient3812" id="linearGradient3384" gradientUnits="userSpaceOnUse" x1="377.50214" y1="507.22119" x2="377.50214" y2="534.16211" />
<linearGradient inkscape:collect="always" xlink:href="#linearGradient3290" id="linearGradient3386" gradientUnits="userSpaceOnUse" x1="454.52679" y1="481.29074" x2="330.00446" y2="481.29074" />
<linearGradient inkscape:collect="always" xlink:href="#linearGradient3299" id="linearGradient3056" gradientUnits="userSpaceOnUse" gradientTransform="translate(3.6221094e-4,0)" x1="327.14285" y1="571.29077" x2="327.14285" y2="481.29074" />
<linearGradient inkscape:collect="always" xlink:href="#linearGradient3299" id="linearGradient3058" gradientUnits="userSpaceOnUse" x1="236.14679" y1="509.08899" x2="256.25" y2="553.19183" />
<linearGradient inkscape:collect="always" xlink:href="#linearGradient3299" id="linearGradient3060" gradientUnits="userSpaceOnUse" x1="251.46344" y1="510.37042" x2="261.67477" y2="558.29987" />
<linearGradient inkscape:collect="always" xlink:href="#linearGradient3299" id="linearGradient3062" gradientUnits="userSpaceOnUse" x1="170.4201" y1="513.32434" x2="170.4201" y2="577.06873" />
<linearGradient inkscape:collect="always" xlink:href="#linearGradient3283" id="linearGradient3064" gradientUnits="userSpaceOnUse" x1="170.4201" y1="501.71945" x2="170.4201" y2="518.36169" />
<linearGradient inkscape:collect="always" xlink:href="#linearGradient3812" id="linearGradient3066" gradientUnits="userSpaceOnUse" x1="377.50214" y1="507.22119" x2="377.50214" y2="534.16211" />
<linearGradient inkscape:collect="always" xlink:href="#linearGradient3290" id="linearGradient3068" gradientUnits="userSpaceOnUse" x1="454.52679" y1="481.29074" x2="330.00446" y2="481.29074" />
<linearGradient inkscape:collect="always" xlink:href="#linearGradient3299" id="linearGradient3070" gradientUnits="userSpaceOnUse" gradientTransform="translate(3.6221094e-4,0)" x1="327.14285" y1="571.29077" x2="327.14285" y2="481.29074" />
<linearGradient inkscape:collect="always" xlink:href="#linearGradient3299" id="linearGradient3072" gradientUnits="userSpaceOnUse" x1="236.14679" y1="509.08899" x2="256.25" y2="553.19183" />
<linearGradient inkscape:collect="always" xlink:href="#linearGradient3299" id="linearGradient3074" gradientUnits="userSpaceOnUse" x1="251.46344" y1="510.37042" x2="261.67477" y2="558.29987" />
<linearGradient inkscape:collect="always" xlink:href="#linearGradient3299" id="linearGradient3076" gradientUnits="userSpaceOnUse" x1="170.4201" y1="513.32434" x2="170.4201" y2="577.06873" />
<linearGradient inkscape:collect="always" xlink:href="#linearGradient3283" id="linearGradient3078" gradientUnits="userSpaceOnUse" x1="170.4201" y1="501.71945" x2="170.4201" y2="518.36169" />
<linearGradient inkscape:collect="always" xlink:href="#linearGradient3812" id="linearGradient3080" gradientUnits="userSpaceOnUse" x1="377.50214" y1="507.22119" x2="377.50214" y2="534.16211" />
<linearGradient inkscape:collect="always" xlink:href="#linearGradient3290" id="linearGradient3082" gradientUnits="userSpaceOnUse" x1="454.52679" y1="481.29074" x2="330.00446" y2="481.29074" />
</defs>
<metadata id="metadata7">
<rdf:RDF>
<cc:Work rdf:about="">
<dc:format>image/svg+xml</dc:format>
<dc:type rdf:resource="http://purl.org/dc/dcmitype/StillImage" />
</cc:Work>
</rdf:RDF>
</metadata>
<g inkscape:label="Layer 1" inkscape:groupmode="layer" id="layer1" transform="translate(-327.5625,-481.71875)">
<g id="g3388" transform="matrix(0.87593886,0,0,0.87593886,47.174103,72.408695)">
<g id="g3313">
<path style="fill:#000000;fill-opacity:1;stroke:none;filter:url(#filter3525)" d="m 369.21912,481.71875 -2.15625,6.59375 0,0.1875 c -3.34544,0.43847 -6.54858,1.28098 -9.5625,2.53125 l -0.0625,-0.125 -5.1875,-4.65625 -4.875,2.8125 1.40625,6.8125 0.0937,0.15625 c -2.62211,2.01686 -4.95059,4.37894 -6.96875,7 l -0.15625,-0.0937 -6.8125,-1.4375 -2.8125,4.875 4.625,5.1875 0.15625,0.0625 c -1.2486,3.00951 -2.12326,6.22232 -2.5625,9.5625 l -0.15625,0 -6.625,2.15625 0,5.65625 6.625,2.15625 0.15625,0 c 0.43848,3.34664 1.31166,6.54761 2.5625,9.5625 l -0.15625,0.0937 -4.625,5.15625 2.8125,4.90625 6.8125,-1.4375 0.125,-0.0937 c 2.02078,2.62721 4.37279,4.97922 7,7 l -0.0937,0.15625 -1.40625,6.78125 4.875,2.8125 5.1875,-4.625 0.0937,-0.15625 c 3.00659,1.24468 6.19515,2.12525 9.53125,2.5625 l 0,0.1875 2.15625,6.59375 5.65625,0 2.15625,-6.59375 0,-0.1875 c 3.3361,-0.43725 6.52466,-1.31782 9.53125,-2.5625 l 0.0937,0.15625 5.1875,4.625 4.875,-2.8125 -1.40625,-6.78125 -0.0937,-0.15625 c 2.62721,-2.02078 4.97922,-4.37279 7,-7 l 0.125,0.0937 6.8125,1.4375 2.8125,-4.90625 -4.625,-5.15625 -0.15625,-0.0937 c 1.25084,-3.01489 2.12402,-6.21586 2.5625,-9.5625 l 0.15625,0 6.625,-2.15625 0,-5.65625 -6.625,-2.15625 -0.15625,0 c -0.43925,-3.34018 -1.3139,-6.55299 -2.5625,-9.5625 l 0.15625,-0.0625 4.625,-5.1875 -2.8125,-4.875 -6.8125,1.4375 -0.15625,0.0937 c -2.01816,-2.62106 -4.34664,-4.98314 -6.96875,-7 l 0.0937,-0.15625 1.40625,-6.8125 -4.875,-2.8125 -5.1875,4.65625 -0.0625,0.125 c -3.01392,-1.25027 -6.21706,-2.09278 -9.5625,-2.53125 l 0,-0.1875 -2.15625,-6.59375 -5.65625,0 z m 2.84375,10.71875 c 18.62999,10e-6 33.75,15.12001 33.75,33.75 1e-5,18.62998 -15.12,33.75 -33.75,33.75 -18.63002,-2e-5 -33.75,-15.12 -33.75,-33.75 0,-18.63002 15.12,-33.75 33.75,-33.75 z" id="path3495" />
<path id="path2479" d="m 369.21912,481.71875 -2.15625,6.59375 0,0.1875 c -3.34544,0.43847 -6.54858,1.28098 -9.5625,2.53125 l -0.0625,-0.125 -5.1875,-4.65625 -4.875,2.8125 1.40625,6.8125 0.0937,0.15625 c -2.62211,2.01686 -4.95059,4.37894 -6.96875,7 l -0.15625,-0.0937 -6.8125,-1.4375 -2.8125,4.875 4.625,5.1875 0.15625,0.0625 c -1.2486,3.00951 -2.12326,6.22232 -2.5625,9.5625 l -0.15625,0 -6.625,2.15625 0,5.65625 6.625,2.15625 0.15625,0 c 0.43848,3.34664 1.31166,6.54761 2.5625,9.5625 l -0.15625,0.0937 -4.625,5.15625 2.8125,4.90625 6.8125,-1.4375 0.125,-0.0937 c 2.02078,2.62721 4.37279,4.97922 7,7 l -0.0937,0.15625 -1.40625,6.78125 4.875,2.8125 5.1875,-4.625 0.0937,-0.15625 c 3.00659,1.24468 6.19515,2.12525 9.53125,2.5625 l 0,0.1875 2.15625,6.59375 5.65625,0 2.15625,-6.59375 0,-0.1875 c 3.3361,-0.43725 6.52466,-1.31782 9.53125,-2.5625 l 0.0937,0.15625 5.1875,4.625 4.875,-2.8125 -1.40625,-6.78125 -0.0937,-0.15625 c 2.62721,-2.02078 4.97922,-4.37279 7,-7 l 0.125,0.0937 6.8125,1.4375 2.8125,-4.90625 -4.625,-5.15625 -0.15625,-0.0937 c 1.25084,-3.01489 2.12402,-6.21586 2.5625,-9.5625 l 0.15625,0 6.625,-2.15625 0,-5.65625 -6.625,-2.15625 -0.15625,0 c -0.43925,-3.34018 -1.3139,-6.55299 -2.5625,-9.5625 l 0.15625,-0.0625 4.625,-5.1875 -2.8125,-4.875 -6.8125,1.4375 -0.15625,0.0937 c -2.01816,-2.62106 -4.34664,-4.98314 -6.96875,-7 l 0.0937,-0.15625 1.40625,-6.8125 -4.875,-2.8125 -5.1875,4.65625 -0.0625,0.125 c -3.01392,-1.25027 -6.21706,-2.09278 -9.5625,-2.53125 l 0,-0.1875 -2.15625,-6.59375 -5.65625,0 z m 2.84375,10.71875 c 18.62999,10e-6 33.75,15.12001 33.75,33.75 1e-5,18.62998 -15.12,33.75 -33.75,33.75 -18.63002,-2e-5 -33.75,-15.12 -33.75,-33.75 0,-18.63002 15.12,-33.75 33.75,-33.75 z" style="fill:url(#linearGradient3056);fill-opacity:1;stroke:none" />
<path sodipodi:type="arc" style="fill:url(#linearGradient3058);fill-opacity:1;stroke:none" id="path3331" sodipodi:cx="256.25" sodipodi:cy="531.11218" sodipodi:rx="26.964285" sodipodi:ry="26.964285" d="m 283.21428,531.11218 c 0,14.89197 -12.07232,26.96429 -26.96428,26.96429 -14.89196,0 -26.96428,-12.07232 -26.96428,-26.96429 0,-14.89196 12.07232,-26.96428 26.96428,-26.96428 14.89196,0 26.96428,12.07232 26.96428,26.96428 z" transform="matrix(1.2649007,0,0,1.2649007,47.916443,-145.62307)" />
<path transform="matrix(1.1192053,0,0,1.1192053,85.250881,-68.242483)" d="m 283.21428,531.11218 c 0,14.89197 -12.07232,26.96429 -26.96428,26.96429 -14.89196,0 -26.96428,-12.07232 -26.96428,-26.96429 0,-14.89196 12.07232,-26.96428 26.96428,-26.96428 14.89196,0 26.96428,12.07232 26.96428,26.96428 z" sodipodi:ry="26.964285" sodipodi:rx="26.964285" sodipodi:cy="531.11218" sodipodi:cx="256.25" id="path3267" style="fill:url(#linearGradient3060);fill-opacity:1;stroke:none" sodipodi:type="arc" />
<g id="g3627">
<path sodipodi:type="arc" style="fill:url(#linearGradient3062);fill-opacity:1;stroke:none" id="path3281" sodipodi:cx="256.25" sodipodi:cy="531.11218" sodipodi:rx="26.964285" sodipodi:ry="26.964285" d="m 283.21428,531.11218 c 0,14.89197 -12.07232,26.96429 -26.96428,26.96429 -14.89196,0 -26.96428,-12.07232 -26.96428,-26.96429 0,-14.89196 12.07232,-26.96428 26.96428,-26.96428 14.89196,0 26.96428,12.07232 26.96428,26.96428 z" transform="matrix(0.5231788,0,0,0.5231788,237.98267,248.31446)" />
<path transform="matrix(0.5231788,0,0,0.5231788,237.98267,248.31446)" d="m 283.21428,531.11218 c 0,14.89197 -12.07232,26.96429 -26.96428,26.96429 -14.89196,0 -26.96428,-12.07232 -26.96428,-26.96429 0,-14.89196 12.07232,-26.96428 26.96428,-26.96428 14.89196,0 26.96428,12.07232 26.96428,26.96428 z" sodipodi:ry="26.964285" sodipodi:rx="26.964285" sodipodi:cy="531.11218" sodipodi:cx="256.25" id="path3557" style="fill:url(#linearGradient3064);fill-opacity:1;stroke:none" sodipodi:type="arc" />
</g>
<path sodipodi:type="arc" style="fill:#ffffff;fill-opacity:1;stroke:none" id="path3279" sodipodi:cx="256.25" sodipodi:cy="531.11218" sodipodi:rx="26.964285" sodipodi:ry="26.964285" d="m 283.21428,531.11218 c 0,14.89197 -12.07232,26.96429 -26.96428,26.96429 -14.89196,0 -26.96428,-12.07232 -26.96428,-26.96429 0,-14.89196 12.07232,-26.96428 26.96428,-26.96428 14.89196,0 26.96428,12.07232 26.96428,26.96428 z" transform="matrix(0.3512979,0,0,0.3512979,282.02715,339.60253)" />
<path transform="matrix(0.3512979,0,0,0.3512979,282.02715,339.60253)" d="m 283.21428,531.11218 c 0,14.89197 -12.07232,26.96429 -26.96428,26.96429 -14.89196,0 -26.96428,-12.07232 -26.96428,-26.96429 0,-14.89196 12.07232,-26.96428 26.96428,-26.96428 14.89196,0 26.96428,12.07232 26.96428,26.96428 z" sodipodi:ry="26.964285" sodipodi:rx="26.964285" sodipodi:cy="531.11218" sodipodi:cx="256.25" id="path3631" style="fill:#ffffff;fill-opacity:1;stroke:none" sodipodi:type="arc" />
<path sodipodi:type="arc" style="fill:#ffffff;fill-opacity:1;stroke:none" id="path3652" sodipodi:cx="256.25" sodipodi:cy="531.11218" sodipodi:rx="26.964285" sodipodi:ry="26.964285" d="m 283.21428,531.11218 c 0,14.89197 -12.07232,26.96429 -26.96428,26.96429 -14.89196,0 -26.96428,-12.07232 -26.96428,-26.96429 0,-14.89196 12.07232,-26.96428 26.96428,-26.96428 14.89196,0 26.96428,12.07232 26.96428,26.96428 z" transform="matrix(0.3512979,0,0,0.3512979,282.02715,339.60253)" />
<g id="g3827" transform="translate(87.500004,0)">
<path id="path3802" d="m 283.21428,531.11218 c 0,14.88429 -12.07999,26.96429 -26.96428,26.96429 -14.88429,0 -26.96428,-12.08 -26.96428,-26.96429 0,-14.88428 12.07999,-26.96428 26.96428,-26.96428 14.88429,0 26.96428,12.08 26.96428,26.96428 z" style="fill:url(#linearGradient3066);fill-opacity:1;stroke:none;filter:url(#filter3808)" transform="matrix(0.3512979,0,0,0.3512979,194.52715,339.60253)" />
<path sodipodi:nodetypes="cscc" id="path3820" d="m 231.31576,520.83504 c 4.04342,-9.79118 13.6884,-16.68714 24.93424,-16.68714 11.64475,0 21.57305,7.39385 25.3432,17.73981 l -50.27744,-1.05267 z" style="fill:#ffffff;fill-opacity:1;stroke:none;filter:url(#filter3808)" transform="matrix(0.3512979,0,0,0.3512979,194.52715,343.88824)" />
</g>
<path style="fill:url(#linearGradient3068);fill-opacity:1;stroke:none" d="m 369.21875,481.71875 -2.15625,6.59375 0,0.1875 c -3.34544,0.43847 -6.54858,1.28098 -9.5625,2.53125 l -0.0625,-0.125 -5.1875,-4.65625 -4.875,2.8125 1.40625,6.8125 0.0937,0.15625 c -2.62211,2.01686 -4.95059,4.37894 -6.96875,7 l -0.15625,-0.0937 -6.8125,-1.4375 -2.8125,4.875 4.625,5.1875 0.15625,0.0625 c -0.93645,2.25713 -1.66642,4.63994 -2.15625,7.09375 -0.16328,0.81794 -0.29644,1.6337 -0.40625,2.46875 l -0.15625,0 -6.625,2.15625 0,5.65625 6.625,2.15625 0.15625,0 c 0.43848,3.34664 1.31166,6.54761 2.5625,9.5625 l -0.0312,0.0312 c 6.13383,0.56803 12.69404,0.58295 19.5625,-0.0312 21.13182,-1.88966 40.57265,-9.31675 53.875,-19.40625 l -0.40625,-0.125 -0.15625,0 c -0.43925,-3.34018 -1.3139,-6.55299 -2.5625,-9.5625 l 0.15625,-0.0625 4.625,-5.1875 -2.8125,-4.875 -6.8125,1.4375 -0.15625,0.0937 c -2.01816,-2.62106 -4.34664,-4.98314 -6.96875,-7 l 0.0937,-0.15625 1.40625,-6.8125 -4.875,-2.8125 -5.1875,4.65625 -0.0625,0.125 c -3.01392,-1.25027 -6.21706,-2.09278 -9.5625,-2.53125 l 0,-0.1875 -2.15625,-6.59375 -5.65625,0 z" id="path2443" />
</g>
<g transform="matrix(0.6787471,0,0,0.6787471,178.44468,214.03925)" id="g3344">
<path id="path3346" d="m 369.21912,481.71875 -2.15625,6.59375 0,0.1875 c -3.34544,0.43847 -6.54858,1.28098 -9.5625,2.53125 l -0.0625,-0.125 -5.1875,-4.65625 -4.875,2.8125 1.40625,6.8125 0.0937,0.15625 c -2.62211,2.01686 -4.95059,4.37894 -6.96875,7 l -0.15625,-0.0937 -6.8125,-1.4375 -2.8125,4.875 4.625,5.1875 0.15625,0.0625 c -1.2486,3.00951 -2.12326,6.22232 -2.5625,9.5625 l -0.15625,0 -6.625,2.15625 0,5.65625 6.625,2.15625 0.15625,0 c 0.43848,3.34664 1.31166,6.54761 2.5625,9.5625 l -0.15625,0.0937 -4.625,5.15625 2.8125,4.90625 6.8125,-1.4375 0.125,-0.0937 c 2.02078,2.62721 4.37279,4.97922 7,7 l -0.0937,0.15625 -1.40625,6.78125 4.875,2.8125 5.1875,-4.625 0.0937,-0.15625 c 3.00659,1.24468 6.19515,2.12525 9.53125,2.5625 l 0,0.1875 2.15625,6.59375 5.65625,0 2.15625,-6.59375 0,-0.1875 c 3.3361,-0.43725 6.52466,-1.31782 9.53125,-2.5625 l 0.0937,0.15625 5.1875,4.625 4.875,-2.8125 -1.40625,-6.78125 -0.0937,-0.15625 c 2.62721,-2.02078 4.97922,-4.37279 7,-7 l 0.125,0.0937 6.8125,1.4375 2.8125,-4.90625 -4.625,-5.15625 -0.15625,-0.0937 c 1.25084,-3.01489 2.12402,-6.21586 2.5625,-9.5625 l 0.15625,0 6.625,-2.15625 0,-5.65625 -6.625,-2.15625 -0.15625,0 c -0.43925,-3.34018 -1.3139,-6.55299 -2.5625,-9.5625 l 0.15625,-0.0625 4.625,-5.1875 -2.8125,-4.875 -6.8125,1.4375 -0.15625,0.0937 c -2.01816,-2.62106 -4.34664,-4.98314 -6.96875,-7 l 0.0937,-0.15625 1.40625,-6.8125 -4.875,-2.8125 -5.1875,4.65625 -0.0625,0.125 c -3.01392,-1.25027 -6.21706,-2.09278 -9.5625,-2.53125 l 0,-0.1875 -2.15625,-6.59375 -5.65625,0 z m 2.84375,10.71875 c 18.62999,10e-6 33.75,15.12001 33.75,33.75 1e-5,18.62998 -15.12,33.75 -33.75,33.75 -18.63002,-2e-5 -33.75,-15.12 -33.75,-33.75 0,-18.63002 15.12,-33.75 33.75,-33.75 z" style="fill:#000000;fill-opacity:1;stroke:none;filter:url(#filter3525)" />
<path style="fill:url(#linearGradient3070);fill-opacity:1;stroke:none" d="m 369.21912,481.71875 -2.15625,6.59375 0,0.1875 c -3.34544,0.43847 -6.54858,1.28098 -9.5625,2.53125 l -0.0625,-0.125 -5.1875,-4.65625 -4.875,2.8125 1.40625,6.8125 0.0937,0.15625 c -2.62211,2.01686 -4.95059,4.37894 -6.96875,7 l -0.15625,-0.0937 -6.8125,-1.4375 -2.8125,4.875 4.625,5.1875 0.15625,0.0625 c -1.2486,3.00951 -2.12326,6.22232 -2.5625,9.5625 l -0.15625,0 -6.625,2.15625 0,5.65625 6.625,2.15625 0.15625,0 c 0.43848,3.34664 1.31166,6.54761 2.5625,9.5625 l -0.15625,0.0937 -4.625,5.15625 2.8125,4.90625 6.8125,-1.4375 0.125,-0.0937 c 2.02078,2.62721 4.37279,4.97922 7,7 l -0.0937,0.15625 -1.40625,6.78125 4.875,2.8125 5.1875,-4.625 0.0937,-0.15625 c 3.00659,1.24468 6.19515,2.12525 9.53125,2.5625 l 0,0.1875 2.15625,6.59375 5.65625,0 2.15625,-6.59375 0,-0.1875 c 3.3361,-0.43725 6.52466,-1.31782 9.53125,-2.5625 l 0.0937,0.15625 5.1875,4.625 4.875,-2.8125 -1.40625,-6.78125 -0.0937,-0.15625 c 2.62721,-2.02078 4.97922,-4.37279 7,-7 l 0.125,0.0937 6.8125,1.4375 2.8125,-4.90625 -4.625,-5.15625 -0.15625,-0.0937 c 1.25084,-3.01489 2.12402,-6.21586 2.5625,-9.5625 l 0.15625,0 6.625,-2.15625 0,-5.65625 -6.625,-2.15625 -0.15625,0 c -0.43925,-3.34018 -1.3139,-6.55299 -2.5625,-9.5625 l 0.15625,-0.0625 4.625,-5.1875 -2.8125,-4.875 -6.8125,1.4375 -0.15625,0.0937 c -2.01816,-2.62106 -4.34664,-4.98314 -6.96875,-7 l 0.0937,-0.15625 1.40625,-6.8125 -4.875,-2.8125 -5.1875,4.65625 -0.0625,0.125 c -3.01392,-1.25027 -6.21706,-2.09278 -9.5625,-2.53125 l 0,-0.1875 -2.15625,-6.59375 -5.65625,0 z m 2.84375,10.71875 c 18.62999,10e-6 33.75,15.12001 33.75,33.75 1e-5,18.62998 -15.12,33.75 -33.75,33.75 -18.63002,-2e-5 -33.75,-15.12 -33.75,-33.75 0,-18.63002 15.12,-33.75 33.75,-33.75 z" id="path3348" />
<path transform="matrix(1.2649007,0,0,1.2649007,47.916443,-145.62307)" d="m 283.21428,531.11218 c 0,14.89197 -12.07232,26.96429 -26.96428,26.96429 -14.89196,0 -26.96428,-12.07232 -26.96428,-26.96429 0,-14.89196 12.07232,-26.96428 26.96428,-26.96428 14.89196,0 26.96428,12.07232 26.96428,26.96428 z" sodipodi:ry="26.964285" sodipodi:rx="26.964285" sodipodi:cy="531.11218" sodipodi:cx="256.25" id="path3350" style="fill:url(#linearGradient3072);fill-opacity:1;stroke:none" sodipodi:type="arc" />
<path sodipodi:type="arc" style="fill:url(#linearGradient3074);fill-opacity:1;stroke:none" id="path3352" sodipodi:cx="256.25" sodipodi:cy="531.11218" sodipodi:rx="26.964285" sodipodi:ry="26.964285" d="m 283.21428,531.11218 c 0,14.89197 -12.07232,26.96429 -26.96428,26.96429 -14.89196,0 -26.96428,-12.07232 -26.96428,-26.96429 0,-14.89196 12.07232,-26.96428 26.96428,-26.96428 14.89196,0 26.96428,12.07232 26.96428,26.96428 z" transform="matrix(1.1192053,0,0,1.1192053,85.250881,-68.242483)" />
<g id="g3354">
<path transform="matrix(0.5231788,0,0,0.5231788,237.98267,248.31446)" d="m 283.21428,531.11218 c 0,14.89197 -12.07232,26.96429 -26.96428,26.96429 -14.89196,0 -26.96428,-12.07232 -26.96428,-26.96429 0,-14.89196 12.07232,-26.96428 26.96428,-26.96428 14.89196,0 26.96428,12.07232 26.96428,26.96428 z" sodipodi:ry="26.964285" sodipodi:rx="26.964285" sodipodi:cy="531.11218" sodipodi:cx="256.25" id="path3356" style="fill:url(#linearGradient3076);fill-opacity:1;stroke:none" sodipodi:type="arc" />
<path sodipodi:type="arc" style="fill:url(#linearGradient3078);fill-opacity:1;stroke:none" id="path3358" sodipodi:cx="256.25" sodipodi:cy="531.11218" sodipodi:rx="26.964285" sodipodi:ry="26.964285" d="m 283.21428,531.11218 c 0,14.89197 -12.07232,26.96429 -26.96428,26.96429 -14.89196,0 -26.96428,-12.07232 -26.96428,-26.96429 0,-14.89196 12.07232,-26.96428 26.96428,-26.96428 14.89196,0 26.96428,12.07232 26.96428,26.96428 z" transform="matrix(0.5231788,0,0,0.5231788,237.98267,248.31446)" />
</g>
<path transform="matrix(0.3512979,0,0,0.3512979,282.02715,339.60253)" d="m 283.21428,531.11218 c 0,14.89197 -12.07232,26.96429 -26.96428,26.96429 -14.89196,0 -26.96428,-12.07232 -26.96428,-26.96429 0,-14.89196 12.07232,-26.96428 26.96428,-26.96428 14.89196,0 26.96428,12.07232 26.96428,26.96428 z" sodipodi:ry="26.964285" sodipodi:rx="26.964285" sodipodi:cy="531.11218" sodipodi:cx="256.25" id="path3360" style="fill:#ffffff;fill-opacity:1;stroke:none" sodipodi:type="arc" />
<path sodipodi:type="arc" style="fill:#ffffff;fill-opacity:1;stroke:none" id="path3362" sodipodi:cx="256.25" sodipodi:cy="531.11218" sodipodi:rx="26.964285" sodipodi:ry="26.964285" d="m 283.21428,531.11218 c 0,14.89197 -12.07232,26.96429 -26.96428,26.96429 -14.89196,0 -26.96428,-12.07232 -26.96428,-26.96429 0,-14.89196 12.07232,-26.96428 26.96428,-26.96428 14.89196,0 26.96428,12.07232 26.96428,26.96428 z" transform="matrix(0.3512979,0,0,0.3512979,282.02715,339.60253)" />
<path transform="matrix(0.3512979,0,0,0.3512979,282.02715,339.60253)" d="m 283.21428,531.11218 c 0,14.89197 -12.07232,26.96429 -26.96428,26.96429 -14.89196,0 -26.96428,-12.07232 -26.96428,-26.96429 0,-14.89196 12.07232,-26.96428 26.96428,-26.96428 14.89196,0 26.96428,12.07232 26.96428,26.96428 z" sodipodi:ry="26.964285" sodipodi:rx="26.964285" sodipodi:cy="531.11218" sodipodi:cx="256.25" id="path3364" style="fill:#ffffff;fill-opacity:1;stroke:none" sodipodi:type="arc" />
<g transform="translate(87.500004,0)" id="g3366">
<path transform="matrix(0.3512979,0,0,0.3512979,194.52715,339.60253)" style="fill:url(#linearGradient3080);fill-opacity:1;stroke:none;filter:url(#filter3808)" d="m 283.21428,531.11218 c 0,14.88429 -12.07999,26.96429 -26.96428,26.96429 -14.88429,0 -26.96428,-12.08 -26.96428,-26.96429 0,-14.88428 12.07999,-26.96428 26.96428,-26.96428 14.88429,0 26.96428,12.08 26.96428,26.96428 z" id="path3368" />
<path transform="matrix(0.3512979,0,0,0.3512979,194.52715,343.88824)" style="fill:#ffffff;fill-opacity:1;stroke:none;filter:url(#filter3808)" d="m 231.31576,520.83504 c 4.04342,-9.79118 13.6884,-16.68714 24.93424,-16.68714 11.64475,0 21.57305,7.39385 25.3432,17.73981 l -50.27744,-1.05267 z" id="path3370" sodipodi:nodetypes="cscc" />
</g>
<path id="path3372" d="m 369.21875,481.71875 -2.15625,6.59375 0,0.1875 c -3.34544,0.43847 -6.54858,1.28098 -9.5625,2.53125 l -0.0625,-0.125 -5.1875,-4.65625 -4.875,2.8125 1.40625,6.8125 0.0937,0.15625 c -2.62211,2.01686 -4.95059,4.37894 -6.96875,7 l -0.15625,-0.0937 -6.8125,-1.4375 -2.8125,4.875 4.625,5.1875 0.15625,0.0625 c -0.93645,2.25713 -1.66642,4.63994 -2.15625,7.09375 -0.16328,0.81794 -0.29644,1.6337 -0.40625,2.46875 l -0.15625,0 -6.625,2.15625 0,5.65625 6.625,2.15625 0.15625,0 c 0.43848,3.34664 1.31166,6.54761 2.5625,9.5625 l -0.0312,0.0312 c 6.13383,0.56803 12.69404,0.58295 19.5625,-0.0312 21.13182,-1.88966 40.57265,-9.31675 53.875,-19.40625 l -0.40625,-0.125 -0.15625,0 c -0.43925,-3.34018 -1.3139,-6.55299 -2.5625,-9.5625 l 0.15625,-0.0625 4.625,-5.1875 -2.8125,-4.875 -6.8125,1.4375 -0.15625,0.0937 c -2.01816,-2.62106 -4.34664,-4.98314 -6.96875,-7 l 0.0937,-0.15625 1.40625,-6.8125 -4.875,-2.8125 -5.1875,4.65625 -0.0625,0.125 c -3.01392,-1.25027 -6.21706,-2.09278 -9.5625,-2.53125 l 0,-0.1875 -2.15625,-6.59375 -5.65625,0 z" style="fill:url(#linearGradient3082);fill-opacity:1;stroke:none" />
</g>
</g>
</g>
</svg>